<svg xmlns="http://www.w3.org/2000/svg" viewBox="0 0 510.04 577.23"><g style="isolation:isolate"><g id="Layer_2" data-name="Layer 2"><g id="Layer_1-2" data-name="Layer 1"><path d="M455.45,484.67a68.59,68.59,0,0,1-68.6,68.6H81v-.2A86.68,86.68,0,0,1,11,508.91h0A86.64,86.64,0,0,1,86.65,380a89.19,89.19,0,0,1,10.27.62c0-.09.07-.27.07-.27A140.32,140.32,0,0,1,269.14,276.18c.86.21,1.72.44,2.57.69A139.56,139.56,0,0,1,305.8,291.6a141.14,141.14,0,0,1,37.83,33.21A140,140,0,0,1,374,411.94c0,1.79-.06,3.59-.13,5.38a68.59,68.59,0,0,1,81.62,67.35Z" style="fill:#fff"/><path d="M11,508.91A86.65,86.65,0,0,0,81,553.07v.2H386.85a68.61,68.61,0,1,0-13-135.95c.07-1.79.13-3.59.13-5.38a140.19,140.19,0,0,0-68.17-120.35c22.94,36.87,48.13,95.38,22.61,149-22.1,46.42-109.87,87.17-148.56,16S97,380.31,97,380.31A77.53,77.53,0,0,1,11,508.91Z" style="fill:#bcf3f7"/><path d="M211.5,439.82C199.36,390.67,206.64,310.56,274,316l-72.83-17.75-29.13,12.29,4.55,34.59,26,89.21Z" style="fill:#bcf3f7"/><path d="M355.4,342.17c-45.16,19.92-60.26,69.23-67.43,119.5-5,35.05,7.28,71.61-8.05,78.29C251.55,552.32,254,517.2,254,517.2l12.13-53.1s15.18-146.26,13.36-146.26c-1,0-6-21.88-10.33-41.66.86.21,1.72.44,2.57.69A139.56,139.56,0,0,1,305.8,291.6a141.14,141.14,0,0,1,37.83,33.21A139.65,139.65,0,0,1,355.4,342.17Z" style="fill:#bcf3f7"/><path d="M225.76,455.25c-.18,22.86,7,37.37,9.41,51.33,2,11.53-37,19.42-32.78-24.27,4.18-43,19.43-28.07,19.43-28.07Z" style="fill:#bcf3f7"/><path d="M169,321.38c15.67-10.63,87.89-10.63,103.56,0V273.83H169Z" style="fill:#2d3b4c"/><path d="M128.72,151.38v36.68h28.1V239H300.56V150.41a47.94,47.94,0,0,0-46.86-47.94h-1.08l-1.82-.15L224.54,100l-3.34-.29-15.33-1.32L203,98.18l-18.67-1.61a22.58,22.58,0,0,0-2.43.12h0c-1,.09-2,.25-3.06.45-12.12,2.33-27.57,11.41-35.82,19.65A48.76,48.76,0,0,0,128.72,151.38Z" style="fill:#3e5670"/><path d="M304.81,139.24a9.38,9.38,0,0,1-4.77,4.08c-10.52,3.73-26-16.52-26-16.52a90.06,90.06,0,0,1-12-8.89,49,49,0,0,1-9.12-10.31,22.24,22.24,0,0,1-2.46-5.31,13.71,13.71,0,0,1-.58-4.77,93.6,93.6,0,0,1,20.68,7C297.8,117.54,304.81,139.24,304.81,139.24Z" style="fill:#3e5670"/><path d="M156.92,163.26l4.32-7.16,3.25,2L163,160.6a1.75,1.75,0,0,0,1.5,2.66l22.2.27-3.18-13.89,9.64,13.62h71.63a2.64,2.64,0,0,0,1.78-.69,2.59,2.59,0,0,0,.84-1.71l.6-6.79,3.79.34-.79,8.85h29.6V239h-151v-75.7Z" style="fill:#2d3b4c"/><path d="M254.92,135a6.1,6.1,0,0,1-3.76,2.56l-3.44.73a3.49,3.49,0,0,0-1.47,6.1l1.27,1a7.05,7.05,0,0,1,1.3,9.58l-31,43.58-31.53-45.2a7.72,7.72,0,0,1,3.25-11.48l5.15-2.23a2,2,0,0,0-.22-3.66l-9.83-3a10.22,10.22,0,0,1-7.18-11l2.82-24.56c.38-.27.75-.52,1.13-.77a0,0,0,0,1,0,0c10.27-6.64,23.1-4,23.1-4l0,5.55-.06,7v.26a76.93,76.93,0,0,1,13.18-1.14c2,0,3.59-2.24,5.3-4.53.54-.74,1.1-1.47,1.69-2.15,1.5-1.72,3.2-3,5.41-2.65.84.14,1.93.24,3.15.32,5.13.36,12.87.49,16.75,2.11a4.7,4.7,0,0,1,1.92,1.31l.46,3.6.66,5.17L255,123.65l.89,6.94A6.06,6.06,0,0,1,254.92,135Z" style="fill:#42738c"/><path d="M177.82,129.67a11.7,11.7,0,0,0,6.38,4.77l9.84,3a.55.55,0,0,1,.37.48.51.51,0,0,1-.32.51L189,140.63a9.13,9.13,0,0,0-3.85,13.6l32.69,46.87L250,155.87a8.48,8.48,0,0,0-1.57-11.52l-1.26-1a2.07,2.07,0,0,1-.7-2.07,2,2,0,0,1,1.56-1.53l3.45-.74a7.51,7.51,0,0,0,5.79-8.66l-3.55-27.86-.54-4.21-.25-.32c-2.15-2.73-8.6-3.31-16.79-3.78-2.34-.13-4.54-.25-5.93-.47a6,6,0,0,0-.94-.08c-3.51,0-5.75,3-7.72,5.69-.12.15-.22.29-.33.45-1.25,1.66-2.51,3.24-3.63,3.24a79.49,79.49,0,0,0-11.74.89l0-5.45L203,98.18l-.08,9.08,1.69-.29a74.8,74.8,0,0,1,12.94-1.13c2.66,0,4.48-2.46,6.25-4.84.23-.32.47-.65.72-1,1.43-1.89,2.93-3.58,4.71-3.58a2.89,2.89,0,0,1,.5,0c1.53.25,3.69.37,6.21.51,4.72.27,12.48.7,14.48,2.45l.36,2.85,3.63,28.46a4.63,4.63,0,0,1-3.57,5.43l-3.44.75a4.9,4.9,0,0,0-2.07,8.59l1.27,1a5.66,5.66,0,0,1,1,7.66l-29.85,41.93L187.43,152.6a6.29,6.29,0,0,1-.89-5.31,6.21,6.21,0,0,1,3.54-4l5.14-2.24a3.37,3.37,0,0,0-.36-6.32l-9.83-3a8.8,8.8,0,0,1-6.19-9.48l3.07-25.54a0,0,0,0,0,0,0c-1,.09-2,.25-3.06.45L176,121.91A11.68,11.68,0,0,0,177.82,129.67Z" style="fill:#2e4959"/><path d="M205.62,123.36c.3,4.43.64,9,1,13a102.32,102.32,0,0,0,3.51,17.5,217.26,217.26,0,0,0,7.67,22.36s3.62-9.94,6.91-22.42c1.5-5.72,2.91-12,3.88-18.06.58-3.7,1-7.6,1.38-11.33-2.32-4.28-6.38-9.66-12.17-9.86S208.17,118.89,205.62,123.36Z" style="fill:#fff"/><path d="M211.4,133c0,2.79,2.7,5.05,6,5.05h0c3.32,0,6-2.26,6-5.05v-4.74c0-2.79-2.7-5-6-5h0c-3.32,0-6,2.26-6,5Z" style="fill:#b70825"/><path d="M167.8,282.59l18.86-23.69-53.58-46.64,23.64-49.11-25.13-28.43-30.54,68.81c-2.35,5.3-5.52,10.89-4,17s7.4,11.64,11.94,15.25Z" style="fill:#3e5670"/><path d="M210.13,153.91a217.26,217.26,0,0,0,7.67,22.36s3.62-9.94,6.91-22.42c-1.16-10.15-3.51-26.71-6.91-30.84C214.93,123.8,212.5,124.19,210.13,153.91Z" style="fill:#f15d3b"/><path d="M270.55,104.49c-.12.51-.27,1-.43,1.56A46.84,46.84,0,0,1,262,120.52a38.09,38.09,0,0,1-7.07,7.11,23,23,0,0,1-6.21,3.46c-17.17,6.07-46.43,5.91-56.44-20.28,4.41-3.63,7.37-3.21,12.08-5.89a126.83,126.83,0,0,1,14.5-7.12q3-1.24,5.67-2.23c3.28-1.22,6.2-2.18,8.56-2.89a37.37,37.37,0,0,1,13.81,3.89C254.86,98.68,262.72,100.76,270.55,104.49Z" style="fill:#9aa59f;mix-blend-mode:multiply"/><path d="M296.53,261.34,306.62,147c.24-20-30.67-22.69-33.93-3L262.6,258.34Z" style="fill:#3e5670"/><path d="M133.08,212.26a12,12,0,0,0-5.93,5c8.07,5.69,23.73,19.93,26.82,24.2a16.15,16.15,0,0,0-.31-11.28Z" style="fill:#2e4959"/><path d="M157.82,286.41H292.57a6.91,6.91,0,0,0,6.82-5.77l15.95-94.8c.71-4.22-2-8.07-6.27-8.07H141.87a6.92,6.92,0,0,0-6.82,8.07L151,280.64A6.92,6.92,0,0,0,157.82,286.41Z" style="fill:#fff"/><path d="M156.91,285.26h136.4a6.65,6.65,0,0,0,6.55-5.55l15.32-91a6.65,6.65,0,0,0-6.56-7.75h-167a6.65,6.65,0,0,0-6.55,7.75l15.31,91A6.65,6.65,0,0,0,156.91,285.26Z" style="fill:#bedbeb"/><path d="M233.46,507.06,249.85,451l20.44,1.95,8.47,8.25L264,515.36c-1.88,6.92-13.57,21.18-22,18.89S231.58,514,233.46,507.06Z" style="fill:#001828"/><path d="M255.81,483.11A12.28,12.28,0,0,0,270,473.06l2.76-16.27a12.27,12.27,0,0,0-10.05-14.15h0a12.27,12.27,0,0,0-14.16,10.05L245.76,469a12.28,12.28,0,0,0,10.05,14.15Z" style="fill:#29394a"/><rect x="151.55" y="281.19" width="147.26" height="5.51" rx="2.11" style="fill:#9fb8c4"/><path d="M255.79,301.13,244,471.5l33.78,3.61,26.87-168.75C301.29,273.49,266,269.72,255.79,301.13Z" style="fill:#3e5670"/><path d="M176.77,482.09l12.9-32.58c1,1.49,30.7-10.92,30.7-10.92l6.7,15.12-13.13,16.16-2.7-2.73-1.56,8-18,22.2c-4.52,5.57-21,13.87-27.78,8.35S170.73,492.46,176.77,482.09Z" style="fill:#001828"/><path d="M211.18,442S192.41,463.46,186,458.92l2.43-6.15Z" style="fill:#29394a"/><path d="M133.22,309.86,187.49,453l33.95-10.64L179.32,292.86C161.14,265.28,127.81,277.27,133.22,309.86Z" style="fill:#3e5670"/><path d="M506.46,441.06l0,.06a.21.21,0,0,0,0-.06Z" style="fill:#e6f6ff"/><polygon points="251.47 152.13 249.25 163.53 243.2 163.53 251.47 152.13" style="fill:#2e4959"/><path d="M223,114.77c-5.71,0-9.47,4.63-11.84,9.19-1.07-10.32-1.86-19.86-1.86-19.86l10.58-2.44L236,105.31a100.7,100.7,0,0,0-1.82,15.45C231.7,116.55,228.84,114.75,223,114.77Z" style="fill:#fff"/><path d="M271.5,46.69,265.08,71.8l-5.79,22.57L187.53,86s-1.27-1-2.06-6.92a262.45,262.45,0,0,1-2.34-42.5c.39-10.67,5.17-21.8,14.13-29A26.09,26.09,0,0,1,210,2.79a5.85,5.85,0,0,1,4,.9S219.13-.38,233.82,0a34.42,34.42,0,0,1,16.83,5.21,45.83,45.83,0,0,1,11.68,10.32,42.52,42.52,0,0,1,9.35,24.27l0,.6A40.86,40.86,0,0,1,271.5,46.69Z" style="fill:#592b1e"/><path d="M262.72,47.62l-4.94,46.53a34.18,34.18,0,0,1-37.43,30.4l-.17,0-3.88-.42a33.73,33.73,0,0,1-8.9-2.2c-1-.39-1.94-.82-2.89-1.31a33.59,33.59,0,0,1-18.07-33.45l5-47.1,14,1.48,54.1,5.75Z" style="fill:#ffb287"/><path d="M193.71,111.81a33.48,33.48,0,0,0,10.8,8.79c-9.29-7.25-11.94-20.12-11.63-33.55a113.11,113.11,0,0,1,1-12c2-14.9,6.24-28.58,7.67-33.9l-10.06-1.06-3.52,33.09-1.49,14c0,.24-.05.47-.06.71A33.42,33.42,0,0,0,193.71,111.81Z" style="fill:#ffb287"/><path d="M189.25,57S201.86,61.47,213,42.34c13.08-19.08-9.24-21-9.24-21S183.63,28.2,189.25,57Z" style="fill:#592b1e"/><path d="M265,87.16a7.58,7.58,0,0,1-7.3,7.85h-.06c0-.29.08-.57.1-.86l1.5-14.09A7.63,7.63,0,0,1,265,87.16Z" style="fill:#ed9a73"/><path d="M180.76,78a7.57,7.57,0,0,0,5.17,6.9,7.73,7.73,0,0,0,2.69.39,7.48,7.48,0,0,0,3.8-1.19,113.13,113.13,0,0,1,1-12,7.52,7.52,0,0,0-5.33-1.92,5.44,5.44,0,0,0-.58.05A7.58,7.58,0,0,0,180.76,78Z" style="fill:#ffb287"/><path d="M262.72,47.62l-3.44,32.44-1.5,14.09c0,.29-.06.57-.1.86a34.19,34.19,0,0,1-37.33,29.54c26.05-1.33,28.46-35,29.26-49.07.1-1.81-22.71,1.13-35.23-25.05,0,0,43.59,1.48,45.2-3.15Z" style="fill:#c66347;opacity:0.31"/><path d="M237,80.46a3.74,3.74,0,0,0,7.47.52c.14-2.06-1.56-1.69-3.63-1.84S237.19,78.4,237,80.46Z" style="fill:#2b1e00"/><path d="M204.62,76.51a3.74,3.74,0,1,0,7.46.52c.14-2.06-1.56-1.69-3.62-1.83S204.76,74.45,204.62,76.51Z" style="fill:#2b1e00"/><path d="M247.55,76.28a16.28,16.28,0,0,0-12.61-2.74" style="fill:none;stroke:#2b1e00;stroke-linecap:round;stroke-miterlimit:10;stroke-width:1.8985500000000002px"/><path d="M214.56,71a16.31,16.31,0,0,0-12.87-.93" style="fill:none;stroke:#2b1e00;stroke-linecap:round;stroke-miterlimit:10;stroke-width:1.8985500000000002px"/><path d="M272.86,71.7l-1.17-31.87-10.86.4a21.47,21.47,0,0,0-9.92-7l-42.47,1.61s3.5,34.26,46.51,37v.1l1.46,0c2.61.12,5.34.13,8.22,0l0-.1Z" style="fill:#592b1e"/><path d="M183,48.39a.54.54,0,0,1,.09.09c0,.81,0,1.61.05,2.4C183,49.32,183,48.39,183,48.39Z" style="fill:#7c3423;mix-blend-mode:lighten"/><path d="M184,65.26c-.38-4.43-.69-9.29-.85-14.38C183.28,54,183.61,59.69,184,65.26Z" style="fill:#7c3423;mix-blend-mode:lighten"/><path d="M185,79.56c-.28-2.47-.69-8.33-1.06-14.3.45,5.33,1,10,1.51,13.82l3,.26Z" style="fill:#7c3423;mix-blend-mode:lighten"/><path d="M258.11,37.42a95.9,95.9,0,0,1-2.92,19.77c-20.7,8.27-40.39-9-43.79-12.25h0l-.3-.31-.2-.19c0,.19,0,.43-.11.54a30.07,30.07,0,0,1-19.61,7.27c-4.32.06-7.58-3.21-8.11-3.77-.09-3.88-.08-7.88.07-11.9.39-10.67,5.17-21.8,14.13-29a26.63,26.63,0,0,1,10.39-4.46,15.1,15.1,0,0,1,2.31-.3,5.85,5.85,0,0,1,4,.9,6.37,6.37,0,0,1,1-.6C217.07,2,222.72-.28,233.82,0a34.42,34.42,0,0,1,16.83,5.21C257.26,14.66,258.54,27.07,258.11,37.42Z" style="fill:#7c3423;mix-blend-mode:lighten"/><path d="M208.76,26.24c1.52,9.4.31,7.28-3,0S203,8.05,207.65,3.09a15.1,15.1,0,0,1,2.31-.3,5.85,5.85,0,0,1,4,.9,6.37,6.37,0,0,1,1-.6C210.72,7.27,207.4,17.74,208.76,26.24Z" style="fill:#592b1e;opacity:0.44"/><path d="M396.67,461.1a58.11,58.11,0,0,1,56,42.86.25.25,0,0,1,0,.07,38.91,38.91,0,1,1,18.4,73.2h-76.4v-.05a58.05,58.05,0,0,1-56-54.38c-.08-1.2-.13-2.41-.13-3.64A58.07,58.07,0,0,1,396.67,461.1Z" style="fill:#fff"/><path d="M383.85,549.32a51.61,51.61,0,0,0,43.47-79.46A58.16,58.16,0,0,1,452.71,504a27.52,27.52,0,1,0,52.58,15.71,38.93,38.93,0,0,1-34.16,57.56h-76.4v-.05a58.05,58.05,0,0,1-56-54.38A51.59,51.59,0,0,0,383.85,549.32Z" style="fill:#bcf3f7"/><path d="M210.67,104.21c.07,5.29,5.21,9.5,11.49,9.42s11.31-4.44,11.23-9.73Z" style="fill:#fff"/><path d="M236,234.2c-1.52,4.11-6.26,6.68-10.92,6.68s-9.39-2.57-10.92-6.68c-2.12-5.71,2.38-12.26,10.92-12.26S238.15,228.49,236,234.2Z" style="fill:#fff"/></g></g></g></svg>